<?xml version="1.0" encoding="utf-8"?>
<svg xmlns="http://www.w3.org/2000/svg" width="218" height="100" viewBox="0 0 218 71.677" fill="none">
  <path d="M110.2 53.5999C108.6 54.6999 107 55.5999 105.2 56.1999C103.4 56.7999 101.4 57.0999 99.1 57.0999C95 57.0999 91.9 55.7999 89.6 53.1999C87.3 50.5999 86.2 47.1999 86.2 42.8999V32.6999H80V24.6999H86.2V15.8999H96.4V24.6999H105.3V32.6999H96.4V42.8999C96.4 44.5999 96.8 45.7999 97.5 46.7999C98.2 47.6999 99.4 48.1999 100.9 48.1999C101.9 48.1999 102.8 47.9999 103.7 47.6999C104.6 47.3999 105.6 46.7999 106.8 46.0999L110.2 53.5999Z" style="fill: rgb(0, 0, 0);"/>
  <path d="M121.3 55.0998C118.5 53.6998 116.3 51.7998 114.6 49.1998C112.9 46.6998 112.1 43.7998 112.1 40.4998C112.1 37.1998 112.9 34.2998 114.6 31.7998C116.3 29.2998 118.5 27.2998 121.3 25.8998C124.1 24.4998 127.1 23.7998 130.2 23.7998C133.3 23.7998 136.2 24.4998 139 25.8998C141.8 27.2998 144.1 29.1998 145.8 31.7998C147.5 34.2998 148.4 37.1998 148.4 40.4998C148.4 43.7998 147.6 46.6998 145.9 49.1998C144.2 51.6998 142 53.6998 139.2 55.0998C136.4 56.4998 133.4 57.1998 130.1 57.1998C127.1 57.1998 124.1 56.4998 121.3 55.0998ZM135.6 46.7998C137.1 45.1998 137.8 43.0998 137.8 40.4998C137.8 37.8998 137.1 35.7998 135.6 34.1998C134.1 32.5998 132.4 31.7998 130.2 31.7998C128.1 31.7998 126.3 32.5998 124.8 34.1998C123.3 35.7998 122.6 37.8998 122.6 40.4998C122.6 43.0998 123.3 45.1998 124.8 46.7998C126.3 48.3998 128 49.1998 130.2 49.1998C132.4 49.1998 134.2 48.3998 135.6 46.7998Z" style="fill: rgb(0, 0, 0);"/>
  <path d="M187.7 25.9998C189.9 27.4998 191.7 29.3998 193.1 31.9998C194.4 34.4998 195.1 37.3998 195.1 40.4998C195.1 43.5998 194.4 46.4998 192.9 48.9998C191.4 51.4998 189.4 53.4998 186.9 54.9998C184.3 56.4998 181.4 57.1998 178.2 57.1998C174.4 57.1998 171.1 55.8998 168.2 53.3998V62.8998H174.3V70.8998H152V62.8998H158.2V32.6998H152V24.6998H168.2V30.7998C170 28.5998 172 26.7998 174.1 25.5998C176.2 24.3998 178.4 23.7998 180.5 23.7998C183 23.7998 185.4 24.4998 187.7 25.9998ZM182 46.3998C183.6 44.8998 184.4 42.8998 184.4 40.3998C184.4 38.0998 183.7 36.1998 182.4 34.5998C181.1 33.0998 179.3 32.2998 177 32.2998C175.6 32.2998 174.2 32.7998 172.6 33.7998C171.1 34.7998 169.6 36.1998 168.1 37.9998V45.7998C170.7 47.6998 173.1 48.6998 175.5 48.6998C178.2 48.6998 180.4 47.8998 182 46.3998Z" style="fill: rgb(0, 0, 0);"/>
  <path d="M0.400024 0.699951V9.89995V59.8H55.1H64.3V0.699951H0.400024ZM20.2 48.1H12.5V14.6H20.2V48.1ZM55 21.8999H46.4V48H38.7V21.8999H30.1V14.5H55V21.8999Z" fill="#9400D3"/>
  <path d="M217.4 59.8H208.3V9.89995H153.6V0.699951H217.4V59.8Z" fill="#9400D3"/>
</svg>